<svg class="balloonsvg" version="1.1" id="Layer_1" xmlns="http://www.w3.org/2000/svg"
                            xmlns:xlink="http://www.w3.org/1999/xlink" x="0px" y="0px" viewBox="0 0 512 512"
                            xml:space="preserve">
                            <path class="balloonFirstColor" d="M274.169,342.699l13.338,22.265h-21.005h-42.01l13.338-22.265
                            c-75.513-9.977-134.118-80.765-134.118-166.781C103.713,83.075,171.874,7.877,256,7.877s152.287,75.198,152.287,168.041
                            C408.287,261.934,349.683,332.721,274.169,342.699z" />
                            <path class="balloonSecondColor" d="M180.99,29.768c-46.114,28.873-77.277,83.434-77.277,146.149
                            c0,86.016,58.604,156.803,134.118,166.781l-13.338,22.265h42.01h21.005l-13.338-22.265c43.209-5.709,80.817-31.38,105.142-68.369
                            C280.193,228.523,205.766,138.672,180.99,29.768z" />
                            <path d="M256,0c-33.918,0-66.324,11.485-93.713,33.213l9.79,12.342C196.654,26.059,225.674,15.754,256,15.754
                            c79.627,0,144.41,71.849,144.41,160.164c0,32.369-8.674,63.546-25.083,90.159l13.41,8.269
                            c17.944-29.101,27.427-63.136,27.427-98.428C416.164,78.916,344.315,0,256,0z" />
                            <path
                            d="M273.137,334.889l-11.887,1.571l12.357,20.627h-35.214l12.357-20.627l-11.888-1.571
                            c-72.558-9.587-127.273-77.929-127.273-158.971c0-46.082,17.916-89.962,49.155-120.389l-10.992-11.285
                            c-34.265,33.374-53.917,81.368-53.917,131.674c0,84.573,54.829,156.609,129.339,172.579l-14.584,24.344h41.422
                            c-0.176,0.124-0.346,0.245-0.53,0.374c-5.85,4.095-13.862,9.703-13.862,21.156c0,11.453,8.012,17.061,13.862,21.156
                            c5.534,3.873,7.143,5.427,7.143,8.251c0,2.759-1.6,4.292-7.104,8.131c-5.867,4.092-13.901,9.696-13.901,21.171
                            c0,11.51,8.022,17.145,13.879,21.26c5.52,3.879,7.126,5.432,7.126,8.252c0,2.824-1.609,4.376-7.143,8.251
                            c-5.85,4.095-13.862,9.703-13.862,21.156h15.754c0-2.824,1.609-4.376,7.143-8.251c5.85-4.095,13.862-9.703,13.862-21.156
                            c0-11.431-7.989-17.045-13.823-21.143c-5.564-3.909-7.182-5.481-7.182-8.369c0-2.828,1.613-4.381,7.16-8.25
                            c5.843-4.075,13.846-9.656,13.846-21.052c0-11.453-8.012-17.061-13.862-21.156c-5.534-3.873-7.143-5.427-7.143-8.251
                            c0-2.824,1.609-4.376,7.143-8.251c4.315-3.021,9.798-6.874,12.383-13.279h28.509l-14.581-24.34
                            c37.218-7.954,70.396-29.982,94.374-62.922l-12.736-9.272C344.581,309.119,310.726,329.923,273.137,334.889z" />
                            <path
                            d="M143.097,175.918h15.754c0-62.255,43.58-112.903,97.149-112.903V47.262C193.745,47.262,143.097,104.976,143.097,175.918z" />
                            <g>
                                <path style="fill:#FFFFFF;" d="M256,288.82v15.754c62.254,0,112.903-57.715,112.903-128.656h-15.754
                            C353.149,238.173,309.568,288.82,256,288.82z" />
                                <rect x="140.472" y="189.046" style="fill:#FFFFFF;" width="21.005" height="15.754" />
                            </g>
                            <rect x="350.523" y="147.036" width="21.005" height="15.754" />
                        </svg>